<?xml version="1.0" standalone="no"?>
<!DOCTYPE svg PUBLIC "-//W3C//DTD SVG 20010904//EN"
 "http://www.w3.org/TR/2001/REC-SVG-20010904/DTD/svg10.dtd">
<svg version="1.0" xmlns="http://www.w3.org/2000/svg"
 width="500.000000pt" height="500.000000pt" viewBox="0 0 500.000000 500.000000"
 preserveAspectRatio="xMidYMid meet">

<g transform="translate(0.000000,500.000000) scale(0.100000,-0.100000)"
fill="#000000" stroke="none">
<path d="M0 2500 l0 -2500 2500 0 2500 0 0 2500 0 2500 -2500 0 -2500 0 0
-2500z m2523 1393 c-7 -2 -19 -2 -25 0 -7 3 -2 5 12 5 14 0 19 -2 13 -5z
m-200 -10 c-7 -2 -19 -2 -25 0 -7 3 -2 5 12 5 14 0 19 -2 13 -5z m300 0 c-13
-2 -35 -2 -50 0 -16 2 -5 4 22 4 28 0 40 -2 28 -4z m-376 -9 c-3 -3 -12 -4
-19 -1 -8 3 -5 6 6 6 11 1 17 -2 13 -5z m446 -1 c-7 -2 -21 -2 -30 0 -10 3 -4
5 12 5 17 0 24 -2 18 -5z m-506 -9 c-3 -3 -12 -4 -19 -1 -8 3 -5 6 6 6 11 1
17 -2 13 -5z m593 -4 c20 -6 21 -8 5 -8 -11 0 -33 4 -50 8 -27 7 -27 8 -5 8
14 0 36 -4 50 -8z m57 -16 c-3 -3 -12 -4 -19 -1 -8 3 -5 6 6 6 11 1 17 -2 13
-5z m190 -64 c93 -40 257 -132 268 -150 4 -6 -17 5 -47 23 -72 47 -207 114
-298 149 -41 16 -61 26 -45 23 17 -4 71 -24 122 -45z m-577 -70 c0 -5 -9 -10
-20 -10 -11 0 -20 -5 -20 -11 0 -6 9 -13 20 -16 11 -3 20 -9 20 -14 0 -5 -9
-9 -20 -9 -11 0 -20 -4 -20 -10 0 -5 11 -10 25 -10 31 0 33 -16 3 -24 -45 -12
-48 -9 -48 54 l0 60 30 0 c17 0 30 -4 30 -10z m221 -10 c20 -11 27 -60 8 -60
-7 0 -9 -10 -5 -25 8 -31 -6 -32 -27 -2 l-16 22 0 -24 c-1 -18 -4 -22 -12 -14
-6 6 -7 30 -3 62 7 53 17 61 55 41z m-455 -27 c3 -10 10 -26 15 -35 20 -38 13
-51 -33 -62 -25 -6 -27 -3 -37 45 -6 28 -9 55 -5 60 10 16 54 10 60 -8z m703
-35 c25 -9 21 -23 -6 -23 -9 0 -21 -15 -28 -34 -6 -19 -17 -37 -23 -39 -15 -5
-15 6 -1 47 9 24 9 35 0 44 -29 29 -9 31 58 5z m-1259 8 c0 -2 -8 -10 -17 -17
-16 -13 -17 -12 -4 4 13 16 21 21 21 13z m-40 -30 c0 -2 -8 -10 -17 -17 -16
-13 -17 -12 -4 4 13 16 21 21 21 13z m378 -79 c30 11 34 -5 4 -21 -36 -19 -29
-25 -62 60 -19 47 3 50 24 3 12 -27 26 -44 34 -42z m1427 -11 c45 -44 46 -46
6 -11 -25 22 -64 55 -86 73 -33 28 -34 30 -6 11 18 -12 57 -45 86 -73z m-1855
51 c0 -2 -10 -12 -22 -23 l-23 -19 19 23 c18 21 26 27 26 19z m1530 -22 c0
-17 -47 -95 -57 -95 -9 0 -6 15 12 50 14 28 30 50 35 50 6 0 10 -2 10 -5z
m-1310 -77 c56 -37 63 -50 23 -46 -22 2 -30 -3 -41 -26 -11 -23 -16 -26 -23
-14 -10 19 -23 118 -15 118 3 0 29 -15 56 -32z m-349 -25 c-5 -10 -24 -31 -42
-48 -29 -27 -29 -25 7 17 42 51 50 58 35 31z m1821 -39 l-3 -39 24 23 c13 12
26 19 30 16 8 -9 -56 -94 -68 -90 -5 2 -8 22 -7 46 l4 43 -25 -28 c-13 -16
-26 -24 -30 -19 -7 12 55 94 68 90 6 -2 9 -21 7 -42z m308 -29 c13 -14 21 -25
18 -25 -2 0 -15 11 -28 25 -13 14 -21 25 -18 25 2 0 15 -11 28 -25z m-2200
-19 c0 -2 -8 -10 -17 -17 -16 -13 -17 -12 -4 4 13 16 21 21 21 13z m2110 -123
c0 -19 -17 -16 -24 4 -5 12 -10 13 -18 5 -8 -8 -8 -15 1 -26 7 -9 8 -16 2 -20
-5 -4 -12 -2 -16 4 -12 20 -27 10 -21 -15 8 -32 -7 -32 -28 -1 -15 24 -14 26
27 60 39 32 43 34 59 19 10 -9 18 -22 18 -30z m-1036 -365 c25 -73 46 -142 46
-154 0 -23 88 -267 100 -274 4 -3 11 -16 15 -30 10 -32 24 -50 50 -60 13 -6
-14 -9 -72 -9 l-93 -1 0 -195 0 -195 88 0 c101 0 135 15 176 77 62 93 75 309
26 420 -31 73 -85 120 -147 128 -70 10 -75 13 -17 14 130 2 229 -64 264 -176
40 -129 20 -303 -45 -387 -15 -20 -52 -48 -83 -63 -55 -27 -63 -28 -242 -30
-114 -2 -177 0 -165 6 48 21 50 31 53 278 2 129 1 249 -2 267 -6 29 -10 33
-31 28 -14 -2 -56 4 -93 13 -89 23 -115 17 -136 -35 -29 -72 -13 -133 37 -143
12 -2 -16 -5 -63 -5 -61 -1 -79 2 -62 8 28 12 27 10 146 350 53 151 98 281
101 288 3 7 23 12 53 12 l49 0 47 -132z m-1294 88 c-23 -60 -50 -187 -58 -275
-19 -184 13 -385 88 -563 l28 -68 -31 -15 c-24 -12 -32 -13 -38 -3 -9 14 -44
156 -61 248 -17 96 -14 337 6 450 17 99 64 265 72 257 2 -2 0 -16 -6 -31z
m2541 -62 c19 -53 -49 -97 -92 -58 -30 27 -23 49 19 67 47 19 63 17 73 -9z
m206 -156 c-3 -8 -6 -5 -6 6 -1 11 2 17 5 13 3 -3 4 -12 1 -19z m10 -50 c-3
-7 -5 -2 -5 12 0 14 2 19 5 13 2 -7 2 -19 0 -25z m-147 -17 c0 -14 -10 -18
-62 -26 -60 -9 -64 8 -5 22 57 14 67 15 67 4z m157 -38 c-3 -10 -5 -4 -5 12 0
17 2 24 5 18 2 -7 2 -21 0 -30z m10 -75 c-2 -13 -4 -5 -4 17 -1 22 1 32 4 23
2 -10 2 -28 0 -40z m10 -225 c-2 -38 -3 -7 -3 67 0 74 1 105 3 68 2 -38 2 -98
0 -135z m-217 148 c0 -6 -4 -13 -10 -16 -5 -3 -10 -15 -10 -26 0 -26 24 -20
29 7 8 45 43 58 62 23 13 -25 -4 -75 -22 -63 -8 4 -8 9 0 17 15 15 14 37 -3
37 -7 0 -16 -13 -19 -30 -5 -23 -12 -30 -31 -30 -34 0 -50 52 -24 78 14 14 28
16 28 3z m48 -247 c30 -6 28 -24 -3 -24 -18 0 -25 -5 -25 -20 0 -13 7 -20 20
-20 11 0 20 -6 20 -14 0 -8 -7 -13 -17 -11 -10 2 -35 7 -55 10 -43 7 -52 25
-13 25 18 0 25 5 25 20 0 13 -7 20 -20 20 -11 0 -20 7 -20 15 0 14 13 14 88
-1z m159 -31 c-3 -10 -5 -4 -5 12 0 17 2 24 5 18 2 -7 2 -21 0 -30z m-10 -55
c-3 -8 -6 -5 -6 6 -1 11 2 17 5 13 3 -3 4 -12 1 -19z m-2617 -334 c0 -8 4 -14
9 -14 5 0 17 -12 27 -27 17 -27 17 -28 -2 -14 -10 7 -6 2 9 -13 15 -14 26 -26
23 -26 -3 0 0 -13 5 -30 6 -16 15 -27 20 -24 5 3 9 0 9 -5 0 -6 6 -11 14 -11
7 0 16 -14 20 -31 4 -22 10 -30 21 -26 8 4 17 2 20 -4 4 -5 11 -6 17 -3 7 4 8
2 4 -5 -6 -9 -11 -9 -21 -1 -20 16 -25 -10 -7 -37 8 -13 11 -23 7 -23 -4 0 -2
-7 5 -15 12 -14 15 -14 31 1 11 10 19 14 19 9 0 -4 7 -2 15 5 8 7 13 16 10 20
-3 5 -1 11 4 14 7 5 8 -22 1 -31 -2 -2 -3 -6 -4 -10 -1 -5 -10 -19 -20 -33
-11 -15 -16 -18 -12 -7 5 14 2 16 -13 8 -10 -6 -21 -8 -25 -6 -3 3 -4 2 -2 -1
2 -3 6 -4 9 -2 10 7 45 -34 41 -47 -8 -19 21 -13 45 9 11 10 18 26 16 37 -2
10 0 21 4 23 4 3 6 -12 5 -32 -1 -20 -3 -37 -4 -37 -1 0 -3 -13 -4 -28 -2 -16
1 -26 8 -24 6 2 11 13 11 24 0 12 3 24 6 27 3 3 5 -8 5 -26 -1 -17 4 -33 10
-35 7 -2 11 7 9 26 l-2 30 63 -32 c35 -17 62 -33 60 -35 -2 -2 -27 8 -55 22
-28 14 -52 26 -54 26 -4 0 -1 -53 3 -57 1 -2 3 -11 4 -20 1 -10 5 -25 10 -33
7 -12 7 -13 -5 -2 -8 7 -14 23 -14 34 0 12 -5 23 -12 25 -8 3 -11 -3 -8 -17 3
-18 -3 -15 -44 19 -60 50 -163 160 -218 232 -51 67 -143 219 -143 237 0 18 42
32 58 20 6 -6 12 -17 12 -24z m205 -279 c1 0 10 7 21 15 15 11 16 11 7 0 -19
-21 -40 -20 -60 3 l-18 22 24 -20 c13 -11 24 -20 26 -20z m392 9 c-3 -3 -12
-4 -19 -1 -8 3 -5 6 6 6 11 1 17 -2 13 -5z m-312 -31 c-2 -10 -4 -19 -5 -20
-2 -2 -3 -11 -4 -20 -2 -32 -16 -45 -32 -32 -13 10 -11 16 12 41 15 15 24 28
20 28 -4 0 -4 5 -1 10 9 15 14 12 10 -7z m262 -19 c-3 -3 -12 -4 -19 -1 -8 3
-5 6 6 6 11 1 17 -2 13 -5z m-97 -104 c8 -5 11 -10 5 -10 -5 0 -17 5 -25 10
-8 5 -10 10 -5 10 6 0 17 -5 25 -10z m50 -20 c8 -5 11 -10 5 -10 -5 0 -17 5
-25 10 -8 5 -10 10 -5 10 6 0 17 -5 25 -10z m-4 -58 c-5 -4 -106 46 -106 53 0
3 25 -7 55 -22 30 -15 53 -29 51 -31z m-76 -7 c0 -2 -8 -2 -17 1 -12 4 -10 -1
7 -15 21 -18 22 -20 5 -15 l-20 6 20 -17 c11 -9 29 -23 40 -31 27 -20 -3 -6
-37 18 -15 11 -27 22 -27 26 1 4 0 9 -1 12 -1 3 -3 13 -5 22 -3 15 0 16 16 8
10 -6 19 -13 19 -15z m86 -23 c-5 -4 -86 36 -86 43 0 3 20 -5 45 -17 24 -12
43 -23 41 -26z m44 -78 c0 -2 -9 0 -20 6 -11 6 -20 13 -20 16 0 2 9 0 20 -6
11 -6 20 -13 20 -16z m1445 10 c-11 -9 -74 -43 -140 -75 -119 -58 -260 -105
-339 -114 -35 -4 -37 -3 -11 4 23 7 25 9 10 11 -11 1 -23 2 -27 1 -4 0 -5 6
-2 14 4 8 9 13 13 11 3 -2 15 0 26 5 17 7 16 8 -8 8 -16 1 -26 5 -22 11 4 6
10 8 15 5 4 -3 13 2 20 10 9 11 35 15 100 15 106 0 212 26 306 74 77 39 89 43
59 20z m-1379 -72 c-5 -4 -66 26 -66 33 0 3 16 -3 35 -12 19 -9 33 -18 31 -21z"/>
<path d="M2640 3670 c0 -13 5 -20 13 -17 6 2 12 10 12 17 0 7 -6 15 -12 18 -8
2 -13 -5 -13 -18z"/>
<path d="M2180 3654 c0 -8 5 -12 10 -9 6 3 10 10 10 16 0 5 -4 9 -10 9 -5 0
-10 -7 -10 -16z"/>
<path d="M2190 3611 c0 -14 5 -19 15 -14 17 6 15 25 -3 31 -7 2 -12 -5 -12
-17z"/>
<path d="M1750 3467 c0 -19 16 -31 24 -18 3 5 -1 14 -9 21 -12 10 -15 10 -15
-3z"/>
<path d="M2241 2798 c-36 -101 -67 -189 -69 -197 -4 -10 2 -9 22 4 20 14 37
16 74 11 106 -16 160 -18 166 -8 6 11 -114 372 -124 372 -3 0 -34 -82 -69
-182z"/>
<path d="M2491 2413 c-1 -30 3 -53 9 -53 19 0 22 30 7 67 l-16 38 0 -52z"/>
<path d="M3622 2886 c-20 -11 -21 -14 -8 -25 20 -17 56 -4 56 20 0 22 -15 24
-48 5z"/>
<path d="M1515 1509 c-3 -4 2 -6 10 -5 21 3 28 13 10 13 -9 0 -18 -4 -20 -8z"/>
<path d="M1575 1430 c-10 -11 -23 -17 -29 -13 -6 3 0 -6 13 -20 14 -15 25 -27
26 -27 1 0 1 12 0 28 -1 15 2 33 8 40 15 19 2 14 -18 -8z m2 -25 c0 -8 -4 -12
-9 -9 -5 3 -6 10 -3 15 9 13 12 11 12 -6z"/>
<path d="M1606 1372 c-3 -5 1 -15 8 -21 11 -10 14 -9 12 3 -3 21 -13 29 -20
18z"/>
<path d="M1551 1476 c-8 -10 -9 -16 -1 -21 5 -3 10 -5 11 -3 4 18 7 38 4 38
-1 0 -8 -6 -14 -14z"/>
</g>
</svg>
